<svg xmlns="http://www.w3.org/2000/svg" width="140.4" height="39.4" viewBox="0 0 140.4 39.4">
  <g id="logo" transform="translate(-299.9 -74.9)">
    <g id="Group_96" data-name="Group 96">
      <path id="Path_328" data-name="Path 328" d="M310.6,79.5a6.471,6.471,0,0,0-.8-.9c-.3-.2-.7-.4-1-.6a2.345,2.345,0,0,0-1.2-.2,4.228,4.228,0,0,0-2,.5,3.744,3.744,0,0,0-1.3,1.2,5.094,5.094,0,0,0-.7,1.7,12.31,12.31,0,0,0-.2,2,11.075,11.075,0,0,0,.2,1.9,8.651,8.651,0,0,0,.7,1.7,3.744,3.744,0,0,0,1.3,1.2,3.939,3.939,0,0,0,2,.5,3.04,3.04,0,0,0,2.5-1,4.158,4.158,0,0,0,1.1-2.6h3.3a7.67,7.67,0,0,1-.7,2.7,6.183,6.183,0,0,1-1.5,2,5.71,5.71,0,0,1-2.1,1.3,7.664,7.664,0,0,1-2.7.4,7.943,7.943,0,0,1-3.2-.6,6.944,6.944,0,0,1-3.9-4.3,8.592,8.592,0,0,1-.5-3.2,11.419,11.419,0,0,1,.5-3.3,9.339,9.339,0,0,1,1.5-2.6,10.766,10.766,0,0,1,2.4-1.8,8.291,8.291,0,0,1,3.2-.6,6.9,6.9,0,0,1,2.5.4,5.291,5.291,0,0,1,2.1,1.1,6.549,6.549,0,0,1,1.5,1.8,6.115,6.115,0,0,1,.7,2.4H311A3.583,3.583,0,0,0,310.6,79.5Z" fill="#02084a"/>
      <path id="Path_329" data-name="Path 329" d="M317.1,79.9a9.339,9.339,0,0,1,1.5-2.6,10.766,10.766,0,0,1,2.4-1.8,8.291,8.291,0,0,1,3.2-.6,8.808,8.808,0,0,1,3.3.6,5.46,5.46,0,0,1,2.4,1.8,6.142,6.142,0,0,1,1.5,2.6,11.419,11.419,0,0,1,.5,3.3,11.27,11.27,0,0,1-.5,3.2,7.4,7.4,0,0,1-1.5,2.6,8.068,8.068,0,0,1-2.4,1.7,8.449,8.449,0,0,1-3.3.6,7.943,7.943,0,0,1-3.2-.6,6.944,6.944,0,0,1-3.9-4.3,8.592,8.592,0,0,1-.5-3.2A11.973,11.973,0,0,1,317.1,79.9Zm3.2,5.2a8.651,8.651,0,0,0,.7,1.7,3.744,3.744,0,0,0,1.3,1.2,3.939,3.939,0,0,0,2,.5,4.228,4.228,0,0,0,2-.5,3.744,3.744,0,0,0,1.3-1.2,5.094,5.094,0,0,0,.7-1.7,6.153,6.153,0,0,0,.2-1.9,12.31,12.31,0,0,0-.2-2,8.651,8.651,0,0,0-.7-1.7,3.744,3.744,0,0,0-1.3-1.2,3.939,3.939,0,0,0-2-.5,4.228,4.228,0,0,0-2,.5,3.744,3.744,0,0,0-1.3,1.2,5.094,5.094,0,0,0-.7,1.7,12.31,12.31,0,0,0-.2,2A4,4,0,0,0,320.3,85.1Z" fill="#02084a"/>
      <path id="Path_330" data-name="Path 330" d="M341.6,75.3a8.21,8.21,0,0,1,2.8.5,5.739,5.739,0,0,1,2.3,1.5,8.174,8.174,0,0,1,1.5,2.4,9.018,9.018,0,0,1,.5,3.4,11.236,11.236,0,0,1-.4,3.2,6.611,6.611,0,0,1-1.3,2.5,6.2,6.2,0,0,1-2.2,1.7,7.455,7.455,0,0,1-3.1.6h-6.8V75.3Zm-.3,12.8a7.719,7.719,0,0,0,1.5-.2,3.528,3.528,0,0,0,1.3-.8,3.765,3.765,0,0,0,.9-1.5,6.872,6.872,0,0,0,.3-2.2,12.481,12.481,0,0,0-.2-2.1,4.02,4.02,0,0,0-.8-1.6,2.805,2.805,0,0,0-1.4-1,6.537,6.537,0,0,0-2.1-.4h-2.5v9.9h3Z" fill="#02084a"/>
      <path id="Path_331" data-name="Path 331" d="M363.3,75.3v2.9H355v3.4h7.6v2.7H355v3.8h8.5V91H351.6V75.3Z" fill="#02084a"/>
      <path id="Path_332" data-name="Path 332" d="M379.5,90.8a6.042,6.042,0,0,1-2.4.5,6.448,6.448,0,0,1-2-.3,4.466,4.466,0,0,1-3.1-4.4,3.34,3.34,0,0,1,.3-1.5,9.129,9.129,0,0,1,.8-1.3,5.241,5.241,0,0,1,1.1-1,9.129,9.129,0,0,1,1.3-.8,14.313,14.313,0,0,1-1.1-1.5,3.425,3.425,0,0,1-.4-1.8,4.013,4.013,0,0,1,.3-1.5,3.126,3.126,0,0,1,.9-1.1,3.293,3.293,0,0,1,1.3-.7,7.972,7.972,0,0,1,1.5-.3,8.807,8.807,0,0,1,1.7.2,3.694,3.694,0,0,1,1.4.7,2.73,2.73,0,0,1,.9,1.2,4.145,4.145,0,0,1,.3,1.6,3.566,3.566,0,0,1-.8,2.3,6.422,6.422,0,0,1-2,1.6l2,2.5a3.552,3.552,0,0,0,.4-.9,2.958,2.958,0,0,0,.2-1h2.7a6.53,6.53,0,0,1-.5,2,5.244,5.244,0,0,1-1,1.8l3.2,3.7h-3.8l-1.3-1.6A3.593,3.593,0,0,1,379.5,90.8Zm-3.1-6.3a4.351,4.351,0,0,0-.7.6,3.039,3.039,0,0,0-.5.7,2.92,2.92,0,0,0-.2.9,2.353,2.353,0,0,0,.2.8,1.794,1.794,0,0,0,.5.7,1.612,1.612,0,0,0,.7.4,3.091,3.091,0,0,0,.8.2,2.6,2.6,0,0,0,1.5-.4,10.6,10.6,0,0,0,1.2-1l-2.7-3.3A2.01,2.01,0,0,0,376.4,84.5Zm2.9-6.9a1.4,1.4,0,0,0-2.4,1,2.01,2.01,0,0,0,.4,1.3c.3.4.5.7.8,1.1a10.63,10.63,0,0,0,1.1-.9,1.9,1.9,0,0,0,.5-1.3A1.594,1.594,0,0,0,379.3,77.6Z" fill="#02084a"/>
      <path id="Path_333" data-name="Path 333" d="M398.3,75.3v6h6.4v-6h3.5V91h-3.5V84.2h-6.4V91h-3.5V75.3Z" fill="#02084a"/>
      <path id="Path_334" data-name="Path 334" d="M423.2,89.8a7.389,7.389,0,0,1-4.9,1.6,7.181,7.181,0,0,1-4.9-1.5c-1.2-1-1.7-2.6-1.7-4.8V75.3h3.5v9.8a6.151,6.151,0,0,0,.1,1.3,2.22,2.22,0,0,0,.5,1.1,2.723,2.723,0,0,0,1,.8,3.984,3.984,0,0,0,1.7.3,2.8,2.8,0,0,0,3.3-3.4V75.4h3.5v9.8C424.9,87.2,424.4,88.8,423.2,89.8Z" fill="#02084a"/>
      <path id="Path_335" data-name="Path 335" d="M440.1,75.3v2.9h-8.3v3.4h7.6v2.7h-7.6v3.8h8.5V91H428.4V75.3Z" fill="#02084a"/>
    </g>
    <g id="Group_97" data-name="Group 97">
      <path id="Path_336" data-name="Path 336" d="M327,103.9a2.066,2.066,0,0,0-1.6-.5,2.768,2.768,0,0,0-1.3.3,2.361,2.361,0,0,0-.9.8,3.7,3.7,0,0,0-.5,1.1,4.325,4.325,0,0,0,0,2.6,3.7,3.7,0,0,0,.5,1.1,2.361,2.361,0,0,0,.9.8,2.768,2.768,0,0,0,1.3.3,2.92,2.92,0,0,0,.9-.2,1.794,1.794,0,0,0,.7-.5,3.039,3.039,0,0,0,.5-.7,9.431,9.431,0,0,0,.3-.9h1a3.36,3.36,0,0,1-1.1,2.3,3.094,3.094,0,0,1-2.3.8,4.671,4.671,0,0,1-1.7-.3,2.73,2.73,0,0,1-1.2-.9,6.374,6.374,0,0,1-.8-1.4,4.967,4.967,0,0,1,0-3.4,3.924,3.924,0,0,1,.8-1.4,3.449,3.449,0,0,1,1.2-.9,4.256,4.256,0,0,1,1.7-.4,3.232,3.232,0,0,1,2.2.7,3.094,3.094,0,0,1,1.1,2.1h-1A2.1,2.1,0,0,0,327,103.9Z" fill="#02084a"/>
      <path id="Path_337" data-name="Path 337" d="M332,102.7v1.9h0a3.978,3.978,0,0,1,1.2-1.6,3.018,3.018,0,0,1,1.9-.5v1a2.166,2.166,0,0,0-1.2.2,2.4,2.4,0,0,0-1.6,1.6,5.019,5.019,0,0,0-.2,1.2v4.4h-1v-8.3h.9Z" fill="#02084a"/>
      <path id="Path_338" data-name="Path 338" d="M337.4,108.3a3.128,3.128,0,0,0,.5,1,3.044,3.044,0,0,0,.8.8,2.643,2.643,0,0,0,2.9-.3,3.765,3.765,0,0,0,.9-1.5h1a3.951,3.951,0,0,1-1.2,2.2,3.649,3.649,0,0,1-2.4.8,4.309,4.309,0,0,1-1.7-.3,2.73,2.73,0,0,1-1.2-.9,6.111,6.111,0,0,1-.7-1.4,6.9,6.9,0,0,1,0-3.3,3.694,3.694,0,0,1,.7-1.4,4,4,0,0,1,1.2-1,4.256,4.256,0,0,1,1.7-.4,3.064,3.064,0,0,1,1.7.4,2.707,2.707,0,0,1,1.1,1,3.387,3.387,0,0,1,.6,1.5,9.852,9.852,0,0,1,.2,1.7h-6.4C337.2,107.5,337.3,107.9,337.4,108.3Zm5-3.1a1.934,1.934,0,0,0-.5-.9,2.7,2.7,0,0,0-.8-.7,1.978,1.978,0,0,0-1.1-.2,3.6,3.6,0,0,0-1.1.2,2.7,2.7,0,0,0-.8.7,4.053,4.053,0,0,0-.5.9c-.1.3-.2.7-.3,1.1h5.3C342.5,105.9,342.5,105.5,342.4,105.2Z" fill="#02084a"/>
      <path id="Path_339" data-name="Path 339" d="M345.9,104a2.552,2.552,0,0,1,1.7-1.4,5.066,5.066,0,0,1,1.3-.2,4.1,4.1,0,0,1,1.1.1,2.994,2.994,0,0,1,1,.4,2.7,2.7,0,0,1,.7.8,2.648,2.648,0,0,1,.3,1.4v4.4a.53.53,0,0,0,.6.6.367.367,0,0,0,.3-.1v.8h-.6c-.3,0-.5,0-.6-.1a1.38,1.38,0,0,1-.4-.3c-.1-.1-.1-.3-.2-.5v-.6h0a4.349,4.349,0,0,1-.6.7,2.651,2.651,0,0,1-.6.5,6.893,6.893,0,0,1-.8.3,3.083,3.083,0,0,1-1,.1,4.1,4.1,0,0,1-1.1-.1,3.552,3.552,0,0,1-.9-.4,1.7,1.7,0,0,1-.6-.8,3.6,3.6,0,0,1-.2-1.1,2.116,2.116,0,0,1,.4-1.4,2.286,2.286,0,0,1,1-.7,5.732,5.732,0,0,1,1.4-.4c.5-.1,1.1-.1,1.6-.2a1.268,1.268,0,0,0,.6-.1.52.52,0,0,0,.4-.2c.1-.1.2-.2.2-.3a4.331,4.331,0,0,0,.1-.5,1.884,1.884,0,0,0-.2-.8,1.205,1.205,0,0,0-.5-.5,4.876,4.876,0,0,0-.7-.3,2.2,2.2,0,0,0-.8-.1,2.767,2.767,0,0,0-1.6.5,1.755,1.755,0,0,0-.6,1.5h-1A6.21,6.21,0,0,0,345.9,104Zm5.1,2.5a1.381,1.381,0,0,1-.4.3.9.9,0,0,1-.5.1c-.4.1-.9.1-1.3.2a3.5,3.5,0,0,0-1.2.3,7.253,7.253,0,0,0-.9.5,1.267,1.267,0,0,0-.4.9,1.445,1.445,0,0,0,.2.7,1,1,0,0,0,.4.5c.2.1.4.3.6.3a1.7,1.7,0,0,0,.7.1,3.6,3.6,0,0,0,1.1-.2,1.934,1.934,0,0,0,.9-.5,2.407,2.407,0,0,0,.6-.8,1.978,1.978,0,0,0,.2-1.1v-1.3Z" fill="#02084a"/>
      <path id="Path_340" data-name="Path 340" d="M358.1,102.7v.8h-1.7v5.6a1.949,1.949,0,0,0,.1.8c.1.2.3.3.7.3h.9v.8h-.8a1.5,1.5,0,0,1-1.8-1.8v-5.6H354v-.8h1.4v-2.5h1v2.5h1.7Z" fill="#02084a"/>
      <path id="Path_341" data-name="Path 341" d="M361.4,99.6v1.6h-1V99.6Zm0,3.1V111h-1v-8.3Z" fill="#02084a"/>
      <path id="Path_342" data-name="Path 342" d="M364.3,102.7l2.6,7.2h0l2.6-7.2h1l-3.1,8.3h-1.1l-3.2-8.3Z" fill="#02084a"/>
      <path id="Path_343" data-name="Path 343" d="M373.1,108.3a3.128,3.128,0,0,0,.5,1,3.044,3.044,0,0,0,.8.8,2.643,2.643,0,0,0,2.9-.3,3.765,3.765,0,0,0,.9-1.5h1a3.951,3.951,0,0,1-1.2,2.2,3.649,3.649,0,0,1-2.4.8,4.309,4.309,0,0,1-1.7-.3,2.73,2.73,0,0,1-1.2-.9,6.111,6.111,0,0,1-.7-1.4,6.9,6.9,0,0,1,0-3.3,3.694,3.694,0,0,1,.7-1.4,4,4,0,0,1,1.2-1,4.256,4.256,0,0,1,1.7-.4,3.064,3.064,0,0,1,1.7.4,3.566,3.566,0,0,1,1.1,1,3.387,3.387,0,0,1,.6,1.5,9.852,9.852,0,0,1,.2,1.7h-6.4C372.9,107.5,373,107.9,373.1,108.3Zm5-3.1a1.934,1.934,0,0,0-.5-.9,2.7,2.7,0,0,0-.8-.7,1.978,1.978,0,0,0-1.1-.2,3.6,3.6,0,0,0-1.1.2,2.7,2.7,0,0,0-.8.7,4.053,4.053,0,0,0-.5.9c-.1.3-.2.7-.3,1.1h5.3A3.6,3.6,0,0,0,378.1,105.2Z" fill="#02084a"/>
      <path id="Path_344" data-name="Path 344" d="M386.9,104a2.552,2.552,0,0,1,1.7-1.4,5.066,5.066,0,0,1,1.3-.2,4.1,4.1,0,0,1,1.1.1,2.994,2.994,0,0,1,1,.4,2.7,2.7,0,0,1,.7.8,2.648,2.648,0,0,1,.3,1.4v4.4a.53.53,0,0,0,.6.6.367.367,0,0,0,.3-.1v.8h-.6c-.3,0-.5,0-.6-.1s-.3-.2-.4-.3-.1-.3-.2-.5v-.6h0a4.349,4.349,0,0,1-.6.7,2.651,2.651,0,0,1-.6.5,6.893,6.893,0,0,1-.8.3,3.083,3.083,0,0,1-1,.1,4.1,4.1,0,0,1-1.1-.1,2.471,2.471,0,0,1-.9-.4,2.761,2.761,0,0,1-.6-.8,3.6,3.6,0,0,1-.2-1.1,2.116,2.116,0,0,1,.4-1.4,2.286,2.286,0,0,1,1-.7,5.732,5.732,0,0,1,1.4-.4c.5-.1,1.1-.1,1.6-.2a1.268,1.268,0,0,0,.6-.1.52.52,0,0,0,.4-.2c.1-.1.2-.2.2-.3a4.331,4.331,0,0,0,.1-.5,1.884,1.884,0,0,0-.2-.8,1.205,1.205,0,0,0-.5-.5,4.876,4.876,0,0,0-.7-.3,2.2,2.2,0,0,0-.8-.1,2.767,2.767,0,0,0-1.6.5,1.755,1.755,0,0,0-.6,1.5h-1A2.651,2.651,0,0,1,386.9,104Zm5,2.5a1.381,1.381,0,0,1-.4.3.9.9,0,0,1-.5.1c-.4.1-.9.1-1.3.2a3.5,3.5,0,0,0-1.2.3,7.253,7.253,0,0,0-.9.5,1.268,1.268,0,0,0-.4.9.844.844,0,0,0,.2.7c.2.2.2.4.4.5s.4.3.6.3a1.7,1.7,0,0,0,.7.1,3.6,3.6,0,0,0,1.1-.2,1.934,1.934,0,0,0,.9-.5,2.407,2.407,0,0,0,.6-.8,1.978,1.978,0,0,0,.2-1.1v-1.3Z" fill="#02084a"/>
      <path id="Path_345" data-name="Path 345" d="M402.6,112a2.281,2.281,0,0,1-.6,1.2,4.44,4.44,0,0,1-1.1.8,4.31,4.31,0,0,1-1.7.3,4.483,4.483,0,0,1-2.3-.5,3.043,3.043,0,0,1-.8-.8,3.583,3.583,0,0,1-.4-1.1h1a6.9,6.9,0,0,0,.3.8c.2.2.3.4.6.5.2.1.5.2.7.3a1.949,1.949,0,0,0,.8.1,2.481,2.481,0,0,0,2-.8,3.715,3.715,0,0,0,.6-2.3v-1.1h0a2.94,2.94,0,0,1-1,1.2,3.022,3.022,0,0,1-1.6.5,4.309,4.309,0,0,1-1.7-.3,2.73,2.73,0,0,1-1.2-.9,4.58,4.58,0,0,1-.7-1.4,4.953,4.953,0,0,1-.2-1.7,7.772,7.772,0,0,1,.2-1.6,5.388,5.388,0,0,1,.7-1.3,2.73,2.73,0,0,1,1.2-.9,4.146,4.146,0,0,1,1.6-.3,2.769,2.769,0,0,1,.9.1,1.612,1.612,0,0,1,.7.4c.2.2.4.3.6.5a2.092,2.092,0,0,1,.4.6h0v-1.4h1v7.6A2.55,2.55,0,0,1,402.6,112Zm-2.4-2.2a2.7,2.7,0,0,0,.8-.7,4.672,4.672,0,0,0,.5-1,4.3,4.3,0,0,0,.2-1.2,4.868,4.868,0,0,0-.1-1.2,3.7,3.7,0,0,0-.5-1.1,3.044,3.044,0,0,0-.8-.8,2.55,2.55,0,0,0-2.4,0,3.043,3.043,0,0,0-.8.8,3.7,3.7,0,0,0-.5,1.1,4,4,0,0,0,0,2.5,3.128,3.128,0,0,0,.5,1,2.7,2.7,0,0,0,.8.7,2.133,2.133,0,0,0,1.2.3A3.583,3.583,0,0,0,400.2,109.8Z" fill="#02084a"/>
      <path id="Path_346" data-name="Path 346" d="M406.2,108.3a3.128,3.128,0,0,0,.5,1,3.044,3.044,0,0,0,.8.8,2.643,2.643,0,0,0,2.9-.3,3.765,3.765,0,0,0,.9-1.5h1a3.951,3.951,0,0,1-1.2,2.2,3.649,3.649,0,0,1-2.4.8,4.309,4.309,0,0,1-1.7-.3,2.73,2.73,0,0,1-1.2-.9,6.111,6.111,0,0,1-.7-1.4,6.9,6.9,0,0,1,0-3.3,3.694,3.694,0,0,1,.7-1.4,4,4,0,0,1,1.2-1,4.256,4.256,0,0,1,1.7-.4,3.064,3.064,0,0,1,1.7.4,2.707,2.707,0,0,1,1.1,1,3.387,3.387,0,0,1,.6,1.5,9.852,9.852,0,0,1,.2,1.7h-6.4A3.546,3.546,0,0,1,406.2,108.3Zm5-3.1a1.934,1.934,0,0,0-.5-.9,2.7,2.7,0,0,0-.8-.7,1.978,1.978,0,0,0-1.1-.2,3.6,3.6,0,0,0-1.1.2,2.7,2.7,0,0,0-.8.7,4.053,4.053,0,0,0-.5.9c-.1.4-.2.7-.3,1.1h5.3A3.6,3.6,0,0,0,411.2,105.2Z" fill="#02084a"/>
      <path id="Path_347" data-name="Path 347" d="M415.6,102.7v1.4h0a2.335,2.335,0,0,1,1-1.2,3.022,3.022,0,0,1,1.6-.5,4.636,4.636,0,0,1,1.4.2,3.49,3.49,0,0,1,.9.6,3.128,3.128,0,0,1,.5,1,5.283,5.283,0,0,1,.1,1.3v5.3h-1v-5.2a3.083,3.083,0,0,0-.1-1,6.9,6.9,0,0,0-.3-.8,2.651,2.651,0,0,0-.6-.5,2.509,2.509,0,0,0-1-.2,3.6,3.6,0,0,0-1.1.2,1.555,1.555,0,0,0-.8.6,2.622,2.622,0,0,0-.5.9,3.6,3.6,0,0,0-.2,1.1v4.8h-1v-8.3h1.1Z" fill="#02084a"/>
      <path id="Path_348" data-name="Path 348" d="M429,103.9a2.066,2.066,0,0,0-1.6-.5,2.768,2.768,0,0,0-1.3.3,2.361,2.361,0,0,0-.9.8,3.7,3.7,0,0,0-.5,1.1,4.325,4.325,0,0,0,0,2.6,3.7,3.7,0,0,0,.5,1.1,2.361,2.361,0,0,0,.9.8,2.768,2.768,0,0,0,1.3.3,2.92,2.92,0,0,0,.9-.2,1.794,1.794,0,0,0,.7-.5,3.039,3.039,0,0,0,.5-.7,9.431,9.431,0,0,0,.3-.9h1a3.36,3.36,0,0,1-1.1,2.3,3.094,3.094,0,0,1-2.3.8,4.671,4.671,0,0,1-1.7-.3,2.73,2.73,0,0,1-1.2-.9,6.376,6.376,0,0,1-.8-1.4,4.967,4.967,0,0,1,0-3.4,3.924,3.924,0,0,1,.8-1.4,2.73,2.73,0,0,1,1.2-.9,4.256,4.256,0,0,1,1.7-.4,3.232,3.232,0,0,1,2.2.7,3.094,3.094,0,0,1,1.1,2.1h-1A1.75,1.75,0,0,0,429,103.9Z" fill="#02084a"/>
      <path id="Path_349" data-name="Path 349" d="M433.2,102.7l2.7,7,2.5-7h1l-3.6,9.5a7.931,7.931,0,0,1-.4.9,1.082,1.082,0,0,1-.4.5c-.2.1-.3.2-.5.3a1.949,1.949,0,0,1-.8.1h-.5a.367.367,0,0,1-.3-.1v-.8a.367.367,0,0,1,.3.1h.3a1.268,1.268,0,0,0,.6-.1c.1-.1.3-.2.4-.3a1.38,1.38,0,0,0,.3-.4c.1-.2.2-.3.2-.5l.4-.9-3.3-8.2h1.1Z" fill="#02084a"/>
    </g>
  </g>
</svg>
