<?xml version="1.0" encoding="utf-8"?>
<!-- Generator: Adobe Illustrator 26.1.0, SVG Export Plug-In . SVG Version: 6.00 Build 0)  -->
<svg version="1.1" id="Layer_1" xmlns="http://www.w3.org/2000/svg" xmlns:xlink="http://www.w3.org/1999/xlink" x="0px" y="0px"
	 viewBox="0 0 143 45" style="enable-background:new 0 0 143 45;" xml:space="preserve">
<style type="text/css">
	.st0{enable-background:new    ;}
	.st1{fill:#FFFFFF;}
</style>
<g id="logo" transform="translate(-299 -70)">
	<g class="st0">
		<path class="st1" d="M310.6,79.5c-0.2-0.3-0.5-0.6-0.8-0.9c-0.3-0.2-0.7-0.4-1-0.6s-0.8-0.2-1.2-0.2c-0.8,0-1.4,0.2-2,0.5
			c-0.5,0.3-1,0.7-1.3,1.2c-0.3,0.5-0.6,1.1-0.7,1.7s-0.2,1.3-0.2,2c0,0.7,0.1,1.3,0.2,1.9c0.2,0.6,0.4,1.2,0.7,1.7
			c0.3,0.5,0.8,0.9,1.3,1.2c0.5,0.3,1.2,0.5,2,0.5c1.1,0,1.9-0.3,2.5-1c0.6-0.6,1-1.5,1.1-2.6h3.3c-0.1,1-0.3,1.9-0.7,2.7
			c-0.4,0.8-0.9,1.5-1.5,2c-0.6,0.6-1.3,1-2.1,1.3c-0.8,0.3-1.7,0.4-2.7,0.4c-1.2,0-2.3-0.2-3.2-0.6c-1-0.4-1.8-1-2.4-1.7
			c-0.7-0.7-1.2-1.6-1.5-2.6c-0.4-1-0.5-2.1-0.5-3.2c0-1.2,0.2-2.3,0.5-3.3c0.4-1,0.9-1.9,1.5-2.6c0.7-0.7,1.5-1.3,2.4-1.8
			c1-0.4,2-0.6,3.2-0.6c0.9,0,1.7,0.1,2.5,0.4c0.8,0.2,1.5,0.6,2.1,1.1c0.6,0.5,1.1,1.1,1.5,1.8s0.6,1.5,0.7,2.4H311
			C310.9,80.2,310.8,79.8,310.6,79.5z"/>
		<path class="st1" d="M317.1,79.9c0.4-1,0.9-1.9,1.5-2.6c0.7-0.7,1.5-1.3,2.4-1.8c1-0.4,2-0.6,3.2-0.6c1.2,0,2.3,0.2,3.3,0.6
			c1,0.4,1.8,1,2.4,1.8c0.7,0.7,1.2,1.6,1.5,2.6s0.5,2.1,0.5,3.3c0,1.1-0.2,2.2-0.5,3.2s-0.9,1.9-1.5,2.6c-0.7,0.7-1.5,1.3-2.4,1.7
			c-1,0.4-2,0.6-3.3,0.6c-1.2,0-2.3-0.2-3.2-0.6c-1-0.4-1.8-1-2.4-1.7c-0.7-0.7-1.2-1.6-1.5-2.6c-0.4-1-0.5-2.1-0.5-3.2
			C316.6,82,316.8,81,317.1,79.9z M320.3,85.1c0.2,0.6,0.4,1.2,0.7,1.7c0.3,0.5,0.8,0.9,1.3,1.2c0.5,0.3,1.2,0.5,2,0.5
			c0.8,0,1.4-0.2,2-0.5c0.5-0.3,1-0.7,1.3-1.2c0.3-0.5,0.6-1.1,0.7-1.7c0.2-0.6,0.2-1.3,0.2-1.9c0-0.7-0.1-1.4-0.2-2
			c-0.2-0.6-0.4-1.2-0.7-1.7c-0.3-0.5-0.8-0.9-1.3-1.2c-0.5-0.3-1.2-0.5-2-0.5c-0.8,0-1.4,0.2-2,0.5c-0.5,0.3-1,0.7-1.3,1.2
			c-0.3,0.5-0.6,1.1-0.7,1.7s-0.2,1.3-0.2,2C320,83.9,320.1,84.5,320.3,85.1z"/>
		<path class="st1" d="M341.6,75.3c1,0,2,0.2,2.8,0.5c0.9,0.3,1.6,0.8,2.3,1.5c0.6,0.6,1.1,1.5,1.5,2.4c0.4,1,0.5,2.1,0.5,3.4
			c0,1.1-0.1,2.2-0.4,3.2c-0.3,1-0.7,1.8-1.3,2.5c-0.6,0.7-1.3,1.3-2.2,1.7c-0.9,0.4-1.9,0.6-3.1,0.6h-6.8V75.3H341.6z M341.3,88.1
			c0.5,0,1-0.1,1.5-0.2c0.5-0.2,0.9-0.4,1.3-0.8s0.7-0.9,0.9-1.5c0.2-0.6,0.3-1.3,0.3-2.2c0-0.8-0.1-1.5-0.2-2.1
			c-0.2-0.6-0.4-1.2-0.8-1.6c-0.4-0.5-0.8-0.8-1.4-1c-0.6-0.2-1.3-0.4-2.1-0.4h-2.5v9.9H341.3z"/>
		<path class="st1" d="M363.3,75.3v2.9H355v3.4h7.6v2.7H355v3.8h8.5V91h-11.9V75.3H363.3z"/>
		<path class="st1" d="M379.5,90.8c-0.7,0.3-1.5,0.5-2.4,0.5c-0.7,0-1.4-0.1-2-0.3c-0.6-0.2-1.2-0.5-1.6-0.9
			c-0.5-0.4-0.8-0.9-1.1-1.5c-0.3-0.6-0.4-1.2-0.4-2c0-0.6,0.1-1.1,0.3-1.5s0.5-0.9,0.8-1.3s0.7-0.7,1.1-1c0.4-0.3,0.9-0.6,1.3-0.8
			c-0.4-0.5-0.8-1-1.1-1.5c-0.3-0.5-0.4-1.1-0.4-1.8c0-0.5,0.1-1,0.3-1.5c0.2-0.4,0.5-0.8,0.9-1.1c0.4-0.3,0.8-0.6,1.3-0.7
			s1-0.3,1.5-0.3c0.6,0,1.2,0.1,1.7,0.2s1,0.4,1.4,0.7c0.4,0.3,0.7,0.7,0.9,1.2c0.2,0.5,0.3,1,0.3,1.6c0,0.9-0.3,1.7-0.8,2.3
			s-1.2,1.2-2,1.6l2,2.5c0.2-0.3,0.3-0.6,0.4-0.9c0.1-0.3,0.2-0.6,0.2-1h2.7c-0.1,0.7-0.2,1.4-0.5,2c-0.2,0.7-0.6,1.3-1,1.8l3.2,3.7
			h-3.8l-1.3-1.6C380.9,90.1,380.2,90.5,379.5,90.8z M376.4,84.5c-0.3,0.2-0.5,0.4-0.7,0.6c-0.2,0.2-0.4,0.5-0.5,0.7
			c-0.1,0.3-0.2,0.6-0.2,0.9c0,0.3,0.1,0.5,0.2,0.8c0.1,0.3,0.3,0.5,0.5,0.7c0.2,0.2,0.4,0.3,0.7,0.4c0.3,0.1,0.6,0.2,0.8,0.2
			c0.6,0,1-0.1,1.5-0.4c0.4-0.3,0.8-0.6,1.2-1l-2.7-3.3C376.9,84.2,376.6,84.3,376.4,84.5z M379.3,77.6c-0.3-0.3-0.6-0.4-1-0.4
			s-0.7,0.1-1,0.4c-0.3,0.3-0.4,0.6-0.4,1c0,0.5,0.1,0.9,0.4,1.3c0.3,0.4,0.5,0.7,0.8,1.1c0.4-0.3,0.8-0.6,1.1-0.9
			c0.3-0.3,0.5-0.8,0.5-1.3C379.7,78.3,379.6,77.9,379.3,77.6z"/>
		<path class="st1" d="M398.3,75.3v6h6.4v-6h3.5V91h-3.5v-6.8h-6.4V91h-3.5V75.3H398.3z"/>
		<path class="st1" d="M423.2,89.8c-1.2,1-2.8,1.6-4.9,1.6c-2.1,0-3.8-0.5-4.9-1.5c-1.2-1-1.7-2.6-1.7-4.8v-9.8h3.5v9.8
			c0,0.4,0,0.8,0.1,1.3c0.1,0.4,0.2,0.8,0.5,1.1c0.2,0.3,0.6,0.6,1,0.8s1,0.3,1.7,0.3c1.2,0,2.1-0.3,2.6-0.8
			c0.5-0.5,0.7-1.4,0.7-2.6v-9.8h3.5v9.8C424.9,87.2,424.4,88.8,423.2,89.8z"/>
		<path class="st1" d="M440.1,75.3v2.9h-8.3v3.4h7.6v2.7h-7.6v3.8h8.5V91h-11.9V75.3H440.1z"/>
	</g>
	<g class="st0">
		<path class="st1" d="M327,103.9c-0.4-0.4-0.9-0.5-1.6-0.5c-0.5,0-0.9,0.1-1.3,0.3c-0.4,0.2-0.7,0.5-0.9,0.8
			c-0.2,0.3-0.4,0.7-0.5,1.1c-0.1,0.4-0.2,0.9-0.2,1.3s0.1,0.9,0.2,1.3c0.1,0.4,0.3,0.8,0.5,1.1c0.2,0.3,0.5,0.6,0.9,0.8
			c0.4,0.2,0.8,0.3,1.3,0.3c0.3,0,0.6-0.1,0.9-0.2c0.3-0.1,0.5-0.3,0.7-0.5s0.4-0.5,0.5-0.7s0.2-0.6,0.3-0.9h1
			c-0.1,1-0.5,1.8-1.1,2.3c-0.6,0.6-1.4,0.8-2.3,0.8c-0.6,0-1.2-0.1-1.7-0.3s-0.9-0.5-1.2-0.9s-0.6-0.9-0.8-1.4
			c-0.2-0.5-0.3-1.1-0.3-1.7s0.1-1.2,0.3-1.7c0.2-0.5,0.4-1,0.8-1.4s0.7-0.7,1.2-0.9c0.5-0.2,1-0.4,1.7-0.4c0.9,0,1.6,0.2,2.2,0.7
			s1,1.2,1.1,2.1h-1C327.6,104.7,327.4,104.2,327,103.9z"/>
		<path class="st1" d="M332,102.7v1.9h0c0.3-0.7,0.7-1.2,1.2-1.6c0.5-0.4,1.2-0.5,1.9-0.5v1c-0.5,0-0.9,0-1.2,0.2
			c-0.4,0.1-0.7,0.3-1,0.6c-0.3,0.3-0.5,0.6-0.6,1c-0.1,0.4-0.2,0.8-0.2,1.2v4.4h-1v-8.3H332z"/>
		<path class="st1" d="M337.4,108.3c0.1,0.4,0.3,0.7,0.5,1s0.5,0.6,0.8,0.8c0.3,0.2,0.8,0.3,1.2,0.3c0.7,0,1.3-0.2,1.7-0.6
			c0.4-0.4,0.7-0.9,0.9-1.5h1c-0.2,0.9-0.6,1.7-1.2,2.2c-0.6,0.5-1.4,0.8-2.4,0.8c-0.7,0-1.2-0.1-1.7-0.3s-0.9-0.5-1.2-0.9
			c-0.3-0.4-0.5-0.9-0.7-1.4c-0.1-0.5-0.2-1.1-0.2-1.7c0-0.5,0.1-1.1,0.2-1.6c0.1-0.5,0.4-1,0.7-1.4c0.3-0.4,0.7-0.7,1.2-1
			c0.5-0.2,1-0.4,1.7-0.4c0.7,0,1.2,0.1,1.7,0.4s0.9,0.6,1.1,1c0.3,0.4,0.5,0.9,0.6,1.5c0.1,0.6,0.2,1.1,0.2,1.7h-6.4
			C337.2,107.5,337.3,107.9,337.4,108.3z M342.4,105.2c-0.1-0.4-0.3-0.7-0.5-0.9c-0.2-0.3-0.5-0.5-0.8-0.7c-0.3-0.2-0.7-0.2-1.1-0.2
			c-0.4,0-0.8,0.1-1.1,0.2c-0.3,0.2-0.6,0.4-0.8,0.7c-0.2,0.3-0.4,0.6-0.5,0.9s-0.2,0.7-0.3,1.1h5.3
			C342.5,105.9,342.5,105.5,342.4,105.2z"/>
		<path class="st1" d="M345.9,104c0.2-0.4,0.4-0.6,0.7-0.9c0.3-0.2,0.6-0.4,1-0.5s0.8-0.2,1.3-0.2c0.4,0,0.7,0,1.1,0.1
			s0.7,0.2,1,0.4s0.5,0.5,0.7,0.8c0.2,0.3,0.3,0.8,0.3,1.4v4.4c0,0.4,0.2,0.6,0.6,0.6c0.1,0,0.2,0,0.3-0.1v0.8c-0.1,0-0.2,0-0.3,0
			c-0.1,0-0.2,0-0.3,0c-0.3,0-0.5,0-0.6-0.1c-0.2-0.1-0.3-0.2-0.4-0.3s-0.1-0.3-0.2-0.5c0-0.2,0-0.4,0-0.6h0
			c-0.2,0.3-0.4,0.5-0.6,0.7s-0.4,0.4-0.6,0.5s-0.5,0.2-0.8,0.3c-0.3,0.1-0.6,0.1-1,0.1c-0.4,0-0.7,0-1.1-0.1
			c-0.3-0.1-0.6-0.2-0.9-0.4s-0.4-0.4-0.6-0.8c-0.1-0.3-0.2-0.7-0.2-1.1c0-0.6,0.1-1,0.4-1.4c0.3-0.3,0.6-0.6,1-0.7
			c0.4-0.2,0.9-0.3,1.4-0.4s1.1-0.1,1.6-0.2c0.2,0,0.4,0,0.6-0.1c0.2,0,0.3-0.1,0.4-0.2c0.1-0.1,0.2-0.2,0.2-0.3s0.1-0.3,0.1-0.5
			c0-0.3-0.1-0.6-0.2-0.8c-0.1-0.2-0.3-0.4-0.5-0.5c-0.2-0.1-0.4-0.2-0.7-0.3s-0.5-0.1-0.8-0.1c-0.6,0-1.2,0.2-1.6,0.5
			c-0.4,0.3-0.6,0.8-0.6,1.5h-1C345.7,104.8,345.8,104.4,345.9,104z M351,106.5c-0.1,0.1-0.2,0.2-0.4,0.3c-0.2,0.1-0.3,0.1-0.5,0.1
			c-0.4,0.1-0.9,0.1-1.3,0.2c-0.5,0.1-0.9,0.1-1.2,0.3s-0.7,0.3-0.9,0.5c-0.2,0.2-0.4,0.5-0.4,0.9c0,0.3,0.1,0.5,0.2,0.7
			s0.2,0.4,0.4,0.5c0.2,0.1,0.4,0.3,0.6,0.3c0.2,0.1,0.5,0.1,0.7,0.1c0.4,0,0.8-0.1,1.1-0.2c0.4-0.1,0.7-0.3,0.9-0.5
			s0.5-0.5,0.6-0.8c0.2-0.3,0.2-0.7,0.2-1.1L351,106.5L351,106.5z"/>
		<path class="st1" d="M358.1,102.7v0.8h-1.7v5.6c0,0.3,0,0.6,0.1,0.8c0.1,0.2,0.3,0.3,0.7,0.3c0.3,0,0.6,0,0.9,0v0.8
			c-0.1,0-0.3,0-0.4,0c-0.1,0-0.3,0-0.4,0c-0.7,0-1.1-0.1-1.4-0.4c-0.3-0.3-0.4-0.7-0.4-1.4v-5.6H354v-0.8h1.4v-2.5h1v2.5H358.1z"/>
		<path class="st1" d="M361.4,99.6v1.6h-1v-1.6H361.4z M361.4,102.7v8.3h-1v-8.3H361.4z"/>
		<path class="st1" d="M364.3,102.7l2.6,7.2h0l2.6-7.2h1l-3.1,8.3h-1.1l-3.2-8.3H364.3z"/>
		<path class="st1" d="M373.1,108.3c0.1,0.4,0.3,0.7,0.5,1s0.5,0.6,0.8,0.8c0.3,0.2,0.8,0.3,1.2,0.3c0.7,0,1.3-0.2,1.7-0.6
			c0.4-0.4,0.7-0.9,0.9-1.5h1c-0.2,0.9-0.6,1.7-1.2,2.2c-0.6,0.5-1.4,0.8-2.4,0.8c-0.7,0-1.2-0.1-1.7-0.3s-0.9-0.5-1.2-0.9
			c-0.3-0.4-0.5-0.9-0.7-1.4c-0.1-0.5-0.2-1.1-0.2-1.7c0-0.5,0.1-1.1,0.2-1.6c0.1-0.5,0.4-1,0.7-1.4c0.3-0.4,0.7-0.7,1.2-1
			c0.5-0.2,1-0.4,1.7-0.4c0.7,0,1.2,0.1,1.7,0.4c0.5,0.3,0.8,0.6,1.1,1c0.3,0.4,0.5,0.9,0.6,1.5c0.1,0.6,0.2,1.1,0.2,1.7h-6.4
			C372.9,107.5,373,107.9,373.1,108.3z M378.1,105.2c-0.1-0.4-0.3-0.7-0.5-0.9c-0.2-0.3-0.5-0.5-0.8-0.7c-0.3-0.2-0.7-0.2-1.1-0.2
			c-0.4,0-0.8,0.1-1.1,0.2c-0.3,0.2-0.6,0.4-0.8,0.7c-0.2,0.3-0.4,0.6-0.5,0.9s-0.2,0.7-0.3,1.1h5.3
			C378.3,105.9,378.2,105.5,378.1,105.2z"/>
		<path class="st1" d="M386.9,104c0.2-0.4,0.4-0.6,0.7-0.9c0.3-0.2,0.6-0.4,1-0.5s0.8-0.2,1.3-0.2c0.4,0,0.7,0,1.1,0.1
			s0.7,0.2,1,0.4c0.3,0.2,0.5,0.5,0.7,0.8c0.2,0.3,0.3,0.8,0.3,1.4v4.4c0,0.4,0.2,0.6,0.6,0.6c0.1,0,0.2,0,0.3-0.1v0.8
			c-0.1,0-0.2,0-0.3,0c-0.1,0-0.2,0-0.3,0c-0.3,0-0.5,0-0.6-0.1s-0.3-0.2-0.4-0.3c-0.1-0.1-0.1-0.3-0.2-0.5c0-0.2,0-0.4,0-0.6h0
			c-0.2,0.3-0.4,0.5-0.6,0.7c-0.2,0.2-0.4,0.4-0.6,0.5c-0.2,0.1-0.5,0.2-0.8,0.3c-0.3,0.1-0.6,0.1-1,0.1c-0.4,0-0.7,0-1.1-0.1
			s-0.6-0.2-0.9-0.4c-0.2-0.2-0.4-0.4-0.6-0.8c-0.1-0.3-0.2-0.7-0.2-1.1c0-0.6,0.1-1,0.4-1.4c0.3-0.3,0.6-0.6,1-0.7
			c0.4-0.2,0.9-0.3,1.4-0.4s1.1-0.1,1.6-0.2c0.2,0,0.4,0,0.6-0.1c0.2,0,0.3-0.1,0.4-0.2c0.1-0.1,0.2-0.2,0.2-0.3s0.1-0.3,0.1-0.5
			c0-0.3-0.1-0.6-0.2-0.8c-0.1-0.2-0.3-0.4-0.5-0.5c-0.2-0.1-0.4-0.2-0.7-0.3s-0.5-0.1-0.8-0.1c-0.6,0-1.2,0.2-1.6,0.5
			c-0.4,0.3-0.6,0.8-0.6,1.5h-1C386.6,104.8,386.7,104.4,386.9,104z M391.9,106.5c-0.1,0.1-0.2,0.2-0.4,0.3
			c-0.2,0.1-0.3,0.1-0.5,0.1c-0.4,0.1-0.9,0.1-1.3,0.2c-0.5,0.1-0.9,0.1-1.2,0.3s-0.7,0.3-0.9,0.5s-0.4,0.5-0.4,0.9
			c0,0.3,0,0.5,0.2,0.7s0.2,0.4,0.4,0.5c0.2,0.1,0.4,0.3,0.6,0.3c0.2,0.1,0.5,0.1,0.7,0.1c0.4,0,0.8-0.1,1.1-0.2
			c0.4-0.1,0.7-0.3,0.9-0.5s0.5-0.5,0.6-0.8c0.2-0.3,0.2-0.7,0.2-1.1L391.9,106.5L391.9,106.5z"/>
		<path class="st1" d="M402.6,112c-0.1,0.5-0.3,0.9-0.6,1.2c-0.3,0.3-0.7,0.6-1.1,0.8c-0.5,0.2-1,0.3-1.7,0.3c-0.4,0-0.8,0-1.2-0.1
			c-0.4-0.1-0.7-0.2-1.1-0.4c-0.3-0.2-0.6-0.5-0.8-0.8s-0.3-0.7-0.4-1.1h1c0.1,0.3,0.2,0.6,0.3,0.8c0.2,0.2,0.3,0.4,0.6,0.5
			c0.2,0.1,0.5,0.2,0.7,0.3s0.5,0.1,0.8,0.1c0.9,0,1.6-0.3,2-0.8s0.6-1.3,0.6-2.3v-1.1h0c-0.2,0.5-0.6,0.9-1,1.2
			c-0.5,0.3-1,0.5-1.6,0.5c-0.7,0-1.2-0.1-1.7-0.3s-0.9-0.5-1.2-0.9s-0.5-0.8-0.7-1.4s-0.2-1.1-0.2-1.7c0-0.6,0.1-1.1,0.2-1.6
			c0.2-0.5,0.4-0.9,0.7-1.3c0.3-0.4,0.7-0.7,1.2-0.9c0.5-0.2,1-0.3,1.6-0.3c0.3,0,0.6,0,0.9,0.1c0.3,0.1,0.5,0.2,0.7,0.4
			c0.2,0.2,0.4,0.3,0.6,0.5c0.2,0.2,0.3,0.4,0.4,0.6h0v-1.4h1v7.6C402.8,110.9,402.7,111.5,402.6,112z M400.2,109.8
			c0.3-0.2,0.6-0.4,0.8-0.7s0.4-0.7,0.5-1s0.2-0.8,0.2-1.2c0-0.4,0-0.8-0.1-1.2c-0.1-0.4-0.3-0.8-0.5-1.1c-0.2-0.3-0.5-0.6-0.8-0.8
			c-0.3-0.2-0.7-0.3-1.2-0.3c-0.5,0-0.9,0.1-1.2,0.3s-0.6,0.5-0.8,0.8c-0.2,0.3-0.4,0.7-0.5,1.1c-0.1,0.4-0.2,0.8-0.2,1.3
			c0,0.4,0.1,0.8,0.2,1.2s0.3,0.7,0.5,1s0.5,0.5,0.8,0.7s0.7,0.3,1.2,0.3C399.5,110.1,399.9,110,400.2,109.8z"/>
		<path class="st1" d="M406.2,108.3c0.1,0.4,0.3,0.7,0.5,1c0.2,0.3,0.5,0.6,0.8,0.8c0.3,0.2,0.8,0.3,1.2,0.3c0.7,0,1.3-0.2,1.7-0.6
			c0.4-0.4,0.7-0.9,0.9-1.5h1c-0.2,0.9-0.6,1.7-1.2,2.2c-0.6,0.5-1.4,0.8-2.4,0.8c-0.7,0-1.2-0.1-1.7-0.3s-0.9-0.5-1.2-0.9
			c-0.3-0.4-0.5-0.9-0.7-1.4c-0.1-0.5-0.2-1.1-0.2-1.7c0-0.5,0.1-1.1,0.2-1.6c0.1-0.5,0.4-1,0.7-1.4c0.3-0.4,0.7-0.7,1.2-1
			c0.5-0.2,1-0.4,1.7-0.4c0.7,0,1.2,0.1,1.7,0.4s0.9,0.6,1.1,1c0.3,0.4,0.5,0.9,0.6,1.5c0.1,0.6,0.2,1.1,0.2,1.7h-6.4
			C406.1,107.5,406.1,107.9,406.2,108.3z M411.2,105.2c-0.1-0.4-0.3-0.7-0.5-0.9c-0.2-0.3-0.5-0.5-0.8-0.7c-0.3-0.2-0.7-0.2-1.1-0.2
			c-0.4,0-0.8,0.1-1.1,0.2c-0.3,0.2-0.6,0.4-0.8,0.7c-0.2,0.3-0.4,0.6-0.5,0.9c-0.1,0.4-0.2,0.7-0.3,1.1h5.3
			C411.4,105.9,411.3,105.5,411.2,105.2z"/>
		<path class="st1" d="M415.6,102.7v1.4h0c0.2-0.5,0.5-0.9,1-1.2c0.5-0.3,1-0.5,1.6-0.5c0.6,0,1.1,0.1,1.4,0.2
			c0.4,0.2,0.7,0.4,0.9,0.6c0.2,0.3,0.4,0.6,0.5,1c0.1,0.4,0.1,0.8,0.1,1.3v5.3h-1v-5.2c0-0.4,0-0.7-0.1-1c-0.1-0.3-0.2-0.6-0.3-0.8
			c-0.2-0.2-0.4-0.4-0.6-0.5s-0.6-0.2-1-0.2c-0.4,0-0.8,0.1-1.1,0.2c-0.3,0.1-0.6,0.3-0.8,0.6s-0.4,0.5-0.5,0.9
			c-0.1,0.3-0.2,0.7-0.2,1.1v4.8h-1v-8.3H415.6z"/>
		<path class="st1" d="M429,103.9c-0.4-0.4-0.9-0.5-1.6-0.5c-0.5,0-0.9,0.1-1.3,0.3c-0.4,0.2-0.7,0.5-0.9,0.8
			c-0.2,0.3-0.4,0.7-0.5,1.1c-0.1,0.4-0.2,0.9-0.2,1.3s0.1,0.9,0.2,1.3c0.1,0.4,0.3,0.8,0.5,1.1s0.5,0.6,0.9,0.8
			c0.4,0.2,0.8,0.3,1.3,0.3c0.3,0,0.6-0.1,0.9-0.2c0.3-0.1,0.5-0.3,0.7-0.5s0.4-0.5,0.5-0.7s0.2-0.6,0.3-0.9h1
			c-0.1,1-0.5,1.8-1.1,2.3c-0.6,0.6-1.4,0.8-2.3,0.8c-0.6,0-1.2-0.1-1.7-0.3s-0.9-0.5-1.2-0.9c-0.3-0.4-0.6-0.9-0.8-1.4
			c-0.2-0.5-0.3-1.1-0.3-1.7s0.1-1.2,0.3-1.7c0.2-0.5,0.4-1,0.8-1.4c0.3-0.4,0.7-0.7,1.2-0.9c0.5-0.2,1-0.4,1.7-0.4
			c0.9,0,1.6,0.2,2.2,0.7s1,1.2,1.1,2.1h-1C429.7,104.7,429.4,104.2,429,103.9z"/>
		<path class="st1" d="M433.2,102.7l2.7,7l2.5-7h1l-3.6,9.5c-0.1,0.4-0.3,0.6-0.4,0.9s-0.3,0.4-0.4,0.5c-0.2,0.1-0.3,0.2-0.5,0.3
			s-0.5,0.1-0.8,0.1c-0.2,0-0.4,0-0.5,0c-0.1,0-0.2,0-0.3-0.1v-0.8c0.1,0,0.2,0,0.3,0.1c0.1,0,0.2,0,0.3,0c0.2,0,0.4,0,0.6-0.1
			c0.1-0.1,0.3-0.2,0.4-0.3s0.2-0.2,0.3-0.4c0.1-0.2,0.2-0.3,0.2-0.5l0.4-0.9l-3.3-8.2H433.2z"/>
	</g>
</g>
</svg>
