<svg xmlns="http://www.w3.org/2000/svg" width="387" height="98.295" viewBox="0 0 387 98.295">
  <path id="webflow-ar21" d="M140.85,57.33c0-7.058-6.732-14.459-18.434-14.459-13.123,0-27.53,9.717-29.736,29.113-2.254,19.585,9.811,28.288,21.973,28.288S133.184,95.485,139.7,89.1c-5.6-7.1-12.833-3.82-14.219-3.1a14.451,14.451,0,0,1-7.517,1.839c-4.693,0-9.482-2.126-9.482-10.975,30.07-3,32.368-12.527,32.368-19.541Zm-14.9,1.16c-.193,2.175-1.053,5.9-16.28,7.984,3.2-11.513,9.342-12.377,12.162-12.377a3.975,3.975,0,0,1,3.075,1.247,4.024,4.024,0,0,1,1.074,3.155ZM75.018,60.378l-6.991,22.2L63.093,44.035c-11.009,0-16.929,7.931-20.017,16.294L34.55,82.623l-1.2-22.055C32.7,50.316,23.4,44.079,15.875,44.079l9.1,55.755C36.506,99.79,42.734,91.9,45.993,83.54L53.2,64.586c.066.772,4.982,35.253,4.982,35.253,11.587,0,17.815-7.4,21.153-15.474L95.566,44.083c-11.425,0-17.447,7.883-20.557,16.294ZM183.376,42.734c-7.136,0-12.587,3.917-17.193,9.669v-.044L170.3,18.848c-9.482,0-17.193,8.319-18.675,20.7L144.491,99.4c5.46,0,11.254-1.6,14.368-5.659a15.864,15.864,0,0,0,13.123,6.528c15.991,0,26.96-18.76,26.96-36.365-.1-16.056-7.807-21.129-15.517-21.129Zm-1.491,28.773C180.218,81.321,174.8,88,169.582,88s-7.517-2.369-7.517-2.369c1.009-8.6,1.632-13.877,3.544-18.425s6.465-11.8,11.206-11.8c4.649,0,6.754,6.237,5.074,16.1Zm56.937-27.467H227.664l.044-.582c.768-7.349,2.491-11.217,8.175-11.848,3.882-.388,5.605-2.417,6.035-4.64l1.39-7.785c-22.368-.146-29.447,9.616-31.249,24.516l-.044.34h-.241c-3.64,0-7.658,4.16-8.333,9.431L203.2,55.4h7.474L204.4,107.717l-1.921,9.382c.241,0,.526.044.763.044,10.482-.388,17.193-8.751,18.675-20.891l4.895-40.859h3.509c3.447,0,7.474-3.485,8.175-9.285Zm58.034-.97c-12.881,0-25.043,9.572-28.771,24.614s1.921,32.831,20.877,32.831,29.811-18.526,29.811-33.947c.018-15.328-10.272-23.5-21.912-23.5Zm5.219,27.948c-.667,6.819-3.64,17.168-11.78,17.168s-7.039-12.086-6.25-17.843c.864-6.14,4.263-14.892,11.587-14.892,6.588,0,7.206,7.883,6.447,15.571Zm80.349-10.688-6.991,22.2c-.189-1.742-4.93-38.539-4.93-38.539-11.009,0-16.9,7.931-19.991,16.294l-8.526,22.293c-.044-1.6-1.2-22.055-1.2-22.055-.693-10.251-9.991-16.488-17.544-16.488l9.048,55.755c11.535-.044,17.763-7.931,21.021-16.294L360.5,64.537c.044.772,4.982,35.253,4.982,35.253,11.587,0,17.789-7.4,21.153-15.474l16.241-40.281c-11.394,0-17.429,7.882-20.5,16.294ZM249.357,19.174l-9.386,76.443-1.921,9.431c.237,0,.526.044.763.044,10.1-.146,17.28-9.087,18.627-20.357l5.408-43.859c1.64-13.4-6.259-21.711-13.491-21.711Z" transform="translate(-15.875 -18.848)" fill="#02084a"/>
</svg>
